<svg width="68" height="79" viewBox="0 0 68 79" fill="none" xmlns="http://www.w3.org/2000/svg">
<path d="M28.7692 31.1603L32.4674 27.4622L39.2308 34.2255L35.53 37.9237L28.7692 31.1603Z" fill="#0094FF"/>
<path d="M28.7692 44.2372L32.4674 40.5391L39.2308 47.3024L35.5326 51.0006L28.7692 44.2372Z" fill="#0094FF"/>
<path d="M41.8462 60.1545H26.1538C24.767 60.1531 23.4373 59.6016 22.4567 58.6209C21.476 57.6403 20.9245 56.3106 20.9231 54.9237V23.5391C20.9245 22.1523 21.476 20.8226 22.4567 19.8419C23.4373 18.8613 24.767 18.3097 26.1538 18.3083H41.8462C43.233 18.3097 44.5627 18.8613 45.5433 19.8419C46.524 20.8226 47.0755 22.1523 47.0769 23.5391V54.9237C47.0755 56.3106 46.524 57.6403 45.5433 58.6209C44.5627 59.6016 43.233 60.1531 41.8462 60.1545ZM26.1538 23.5391V54.9237H41.8488L41.8462 23.5391H26.1538Z" fill="#0094FF"/>
<path d="M34 78.4623C33.5369 78.4627 33.0819 78.3399 32.6818 78.1066L1.29723 59.7989C0.902366 59.5685 0.574798 59.2386 0.347184 58.8421C0.119571 58.4456 -0.000135356 57.9964 1.14856e-07 57.5392V20.9239C-0.000135356 20.4667 0.119571 20.0174 0.347184 19.621C0.574798 19.2245 0.902366 18.8946 1.29723 18.6642L32.6818 0.356467C33.0819 0.123015 33.5368 0 34 0C34.4632 0 34.9181 0.123015 35.3182 0.356467L66.7028 18.6642L64.0665 23.1835L34 5.64477L5.23077 22.4251V56.038L34 72.8209L62.7692 56.038V36.6162H68V57.5392C68.0001 57.9964 67.8804 58.4456 67.6528 58.8421C67.4252 59.2386 67.0976 59.5685 66.7028 59.7989L35.3182 78.1066C34.9181 78.3399 34.4631 78.4627 34 78.4623Z" fill="#0094FF"/>
</svg>
