<svg width="68" height="70" viewBox="0 0 68 70" fill="none" xmlns="http://www.w3.org/2000/svg">
<path d="M68 50.3375C67.9985 54.9261 66.4091 59.3767 63.4951 62.9524C60.581 66.5281 56.517 69.0145 51.9758 70L49.8066 63.5778C51.793 63.2549 53.6821 62.5012 55.3377 61.3709C56.9933 60.2407 58.3743 58.762 59.381 57.0415H51C49.1965 57.0415 47.4669 56.3345 46.1917 55.076C44.9164 53.8175 44.2 52.1106 44.2 50.3307V36.9092C44.2 35.1294 44.9164 33.4225 46.1917 32.164C47.4669 30.9055 49.1965 30.1984 51 30.1984H60.9892C60.1595 23.7121 56.9599 17.7475 51.9908 13.4238C47.0218 9.10007 40.6247 6.71438 34 6.71438C27.3753 6.71438 20.9782 9.10007 16.0091 13.4238C11.0401 17.7475 7.84051 23.7121 7.0108 30.1984H17C18.8035 30.1984 20.5331 30.9055 21.8083 32.164C23.0836 33.4225 23.8 35.1294 23.8 36.9092V50.3307C23.8 52.1106 23.0836 53.8175 21.8083 55.076C20.5331 56.3345 18.8035 57.0415 17 57.0415H6.8C4.99653 57.0415 3.26692 56.3345 1.99167 55.076C0.716426 53.8175 0 52.1106 0 50.3307V33.5538C0 15.0221 15.2218 0 34 0C52.7782 0 68 15.0221 68 33.5538V50.3375Z" fill="#0094FF"/>
</svg>
