<svg width="68" height="68" viewBox="0 0 68 68" fill="none" xmlns="http://www.w3.org/2000/svg">
<path d="M19.125 14.875C20.2986 14.875 21.25 13.9236 21.25 12.75C21.25 11.5764 20.2986 10.625 19.125 10.625C17.9514 10.625 17 11.5764 17 12.75C17 13.9236 17.9514 14.875 19.125 14.875Z" fill="#0094FF"/>
<path d="M55.25 21.25H12.75C11.6232 21.2489 10.5428 20.8007 9.74604 20.004C8.94925 19.2072 8.50113 18.1268 8.5 17V8.5C8.50113 7.37318 8.94925 6.29282 9.74604 5.49604C10.5428 4.69925 11.6232 4.25113 12.75 4.25H55.25C56.3768 4.25113 57.4572 4.69925 58.254 5.49604C59.0507 6.29282 59.4989 7.37318 59.5 8.5V17C59.4989 18.1268 59.0507 19.2072 58.254 20.004C57.4572 20.8007 56.3768 21.2489 55.25 21.25ZM12.75 8.5V17H55.25V8.5H12.75Z" fill="#0094FF"/>
<path d="M19.125 36.125C20.2986 36.125 21.25 35.1736 21.25 34C21.25 32.8264 20.2986 31.875 19.125 31.875C17.9514 31.875 17 32.8264 17 34C17 35.1736 17.9514 36.125 19.125 36.125Z" fill="#0094FF"/>
<path d="M55.25 42.5H12.75C11.6232 42.4989 10.5428 42.0507 9.74604 41.254C8.94925 40.4572 8.50113 39.3768 8.5 38.25V29.75C8.50113 28.6232 8.94925 27.5428 9.74604 26.746C10.5428 25.9493 11.6232 25.5011 12.75 25.5H55.25C56.3768 25.5011 57.4572 25.9493 58.254 26.746C59.0507 27.5428 59.4989 28.6232 59.5 29.75V38.25C59.4989 39.3768 59.0507 40.4572 58.254 41.254C57.4572 42.0507 56.3768 42.4989 55.25 42.5ZM12.75 29.75V38.25H55.25V29.75H12.75Z" fill="#0094FF"/>
<path d="M19.125 57.375C20.2986 57.375 21.25 56.4236 21.25 55.25C21.25 54.0764 20.2986 53.125 19.125 53.125C17.9514 53.125 17 54.0764 17 55.25C17 56.4236 17.9514 57.375 19.125 57.375Z" fill="#0094FF"/>
<path d="M55.25 63.75H12.75C11.6232 63.7489 10.5428 63.3007 9.74604 62.504C8.94925 61.7072 8.50113 60.6268 8.5 59.5V51C8.50113 49.8732 8.94925 48.7928 9.74604 47.996C10.5428 47.1993 11.6232 46.7511 12.75 46.75H55.25C56.3768 46.7511 57.4572 47.1993 58.254 47.996C59.0507 48.7928 59.4989 49.8732 59.5 51V59.5C59.4989 60.6268 59.0507 61.7072 58.254 62.504C57.4572 63.3007 56.3768 63.7489 55.25 63.75ZM12.75 51V59.5H55.25V51H12.75Z" fill="#0094FF"/>
</svg>
