<svg width="64" height="64" viewBox="0 0 64 64" fill="none" xmlns="http://www.w3.org/2000/svg">
<path d="M56 40C58.2083 40 60.0938 40.7812 61.6562 42.3438C63.2188 43.9062 64 45.7917 64 48V56C64 58.2083 63.2188 60.0938 61.6562 61.6562C60.0938 63.2188 58.2083 64 56 64H8C5.79167 64 3.90625 63.2188 2.34375 61.6562C0.78125 60.0938 0 58.2083 0 56V48C0 45.7917 0.78125 43.9062 2.34375 42.3438C3.90625 40.7812 5.79167 40 8 40H28V32H8C5.79167 32 3.90625 31.2188 2.34375 29.6562C0.78125 28.0938 0 26.2083 0 24V16C0 13.7917 0.78125 11.9062 2.34375 10.3438C3.90625 8.78125 5.79167 8 8 8H28V4C28 2.875 28.3854 1.92708 29.1562 1.15625C29.9271 0.385417 30.8646 0 31.9688 0C33.0729 0 34.0208 0.385417 34.8125 1.15625C35.6042 1.92708 36 2.875 36 4V8H56C58.2083 8 60.0938 8.78125 61.6562 10.3438C63.2188 11.9062 64 13.7917 64 16V24C64 26.2083 63.2188 28.0938 61.6562 29.6562C60.0938 31.2188 58.2083 32 56 32H36V40H56ZM11.9688 48C10.8646 48 9.92708 48.3958 9.15625 49.1875C8.38542 49.9792 8 50.9271 8 52.0312C8 53.1354 8.38542 54.0729 9.15625 54.8438C9.92708 55.6146 10.8646 56 11.9688 56C13.0729 56 14.0208 55.6146 14.8125 54.8438C15.6042 54.0729 16 53.1354 16 52.0312C16 50.9271 15.6042 49.9792 14.8125 49.1875C14.0208 48.3958 13.0729 48 11.9688 48ZM11.9688 16C10.8646 16 9.92708 16.3958 9.15625 17.1875C8.38542 17.9792 8 18.9271 8 20.0312C8 21.1354 8.38542 22.0729 9.15625 22.8438C9.92708 23.6146 10.8646 24 11.9688 24C13.0729 24 14.0208 23.6146 14.8125 22.8438C15.6042 22.0729 16 21.1354 16 20.0312C16 18.9271 15.6042 17.9792 14.8125 17.1875C14.0208 16.3958 13.0729 16 11.9688 16ZM52 24C53.0833 24 54.0208 23.6146 54.8125 22.8438C55.6042 22.0729 56 21.1354 56 20.0312C56 18.9271 55.6042 17.9792 54.8125 17.1875C54.0208 16.3958 53.0833 16 52 16H28C26.875 16 25.9271 16.3958 25.1562 17.1875C24.3854 17.9792 24 18.9271 24 20.0312C24 21.1354 24.3854 22.0729 25.1562 22.8438C25.9271 23.6146 26.875 24 28 24H52ZM28 48C26.875 48 25.9271 48.3958 25.1562 49.1875C24.3854 49.9792 24 50.9271 24 52.0312C24 53.1354 24.3854 54.0729 25.1562 54.8438C25.9271 55.6146 26.875 56 28 56H52C53.0833 56 54.0208 55.6146 54.8125 54.8438C55.6042 54.0729 56 53.1354 56 52.0312C56 50.9271 55.6042 49.9792 54.8125 49.1875C54.0208 48.3958 53.0833 48 52 48H28Z" fill="#0094FF"/>
</svg>
