<svg width="60" height="74" viewBox="0 0 60 74" fill="none" xmlns="http://www.w3.org/2000/svg">
<path d="M58.7912 9.48223L31.2326 0.168895C30.9001 0.0562981 30.454 0 30.0079 0C29.5619 0 29.1158 0.0562981 28.7833 0.168895L1.22465 9.48223C0.551498 9.70742 0 10.4795 0 11.1873V49.9848C0 50.6925 0.462285 51.6255 1.02189 52.0678L28.9779 73.6703C29.2618 73.8874 29.6268 74 29.9998 74C30.3729 74 30.746 73.8874 31.0217 73.6703L58.9778 52.0678C59.5374 51.6335 59.9997 50.7006 59.9997 49.9848V11.1873C60.0159 10.4795 59.4644 9.71547 58.7912 9.48223ZM44.8092 23.219L27.5668 46.7597C27.4455 46.9242 27.2869 47.0581 27.1037 47.1503C26.9205 47.2426 26.7179 47.2907 26.5124 47.2907C26.3069 47.2907 26.1044 47.2426 25.9212 47.1503C25.738 47.0581 25.5793 46.9242 25.4581 46.7597L15.2067 32.7656C14.8985 32.3393 15.2067 31.7442 15.7339 31.7442H20.2108C20.6244 31.7442 21.0218 31.9452 21.2651 32.275L26.5124 39.4329L38.7508 22.7204C38.9941 22.3906 39.3834 22.1895 39.8051 22.1895H44.282C44.8092 22.1976 45.1173 22.7927 44.8092 23.219Z" fill="#0094FF"/>
</svg>
