<svg width="60" height="60" viewBox="0 0 60 60" fill="none" xmlns="http://www.w3.org/2000/svg">
<path d="M36.5052 35.2004L40.7052 27.9259C40.9752 27.475 40.8552 26.9038 40.4652 26.5731L36.0252 23.0862C36.1152 22.4249 36.1752 21.7335 36.1752 21.0421C36.1752 20.3507 36.1152 19.6593 36.0252 18.9679L40.4652 15.481C40.8552 15.1503 40.9752 14.5792 40.7052 14.1283L36.5052 6.85371C36.2352 6.40281 35.6952 6.22245 35.2152 6.40281L29.9953 8.50701C28.9153 7.66533 27.7453 6.97395 26.4553 6.43287L25.6753 0.871743C25.625 0.628623 25.4936 0.409888 25.3028 0.25147C25.112 0.0930518 24.8731 0.00437274 24.6254 0H16.2254C15.7154 0 15.2655 0.390781 15.1755 0.901803L14.3955 6.46293C13.1355 7.00401 11.9355 7.69539 10.8555 8.53708L5.63556 6.43287C5.15556 6.2525 4.61557 6.43287 4.34557 6.88377L0.145614 14.1583C-0.124383 14.6092 -0.00438402 15.1804 0.385612 15.511L4.82556 18.998C4.73556 19.6593 4.67557 20.3507 4.67557 21.0421C4.67557 21.7335 4.73556 22.4249 4.82556 23.1162L0.385612 26.6032C-0.00438402 26.9339 -0.124383 27.505 0.145614 27.9559L4.34557 35.2305C4.61557 35.6814 5.15556 35.8617 5.63556 35.6814L10.8555 33.5772C11.9355 34.4188 13.1055 35.1102 14.3955 35.6513L15.1755 41.2124C15.2655 41.6934 15.7154 42.0842 16.2254 42.0842H24.6254C25.1353 42.0842 25.5853 41.6934 25.6753 41.1824L26.4553 35.6212C27.7153 35.0802 28.9153 34.3888 29.9953 33.5471L35.2152 35.6513C35.6952 35.8317 36.2352 35.6513 36.5052 35.2004ZM20.4254 27.0541C17.1254 27.0541 14.4255 24.3487 14.4255 21.0421C14.4255 17.7355 17.1254 15.0301 20.4254 15.0301C23.7254 15.0301 26.4253 17.7355 26.4253 21.0421C26.4253 24.3487 23.7254 27.0541 20.4254 27.0541ZM59.755 50.1102L56.875 47.8858C56.935 47.4649 56.995 47.014 56.995 46.5631C56.995 46.1122 56.965 45.6613 56.875 45.2405L59.725 43.016C59.965 42.8056 60.055 42.4449 59.875 42.1443L57.175 37.485C57.025 37.1844 56.665 37.0942 56.335 37.1844L53.0051 38.5371C52.3151 37.996 51.5651 37.5451 50.7251 37.2144L50.2151 33.6673C50.2032 33.5067 50.1322 33.3562 50.0157 33.245C49.8993 33.1339 49.7458 33.0702 49.5851 33.0661H44.2151C43.8851 33.0661 43.5852 33.3066 43.5552 33.6373L43.0452 37.1844C42.2352 37.5451 41.4552 37.9659 40.7652 38.507L37.4352 37.1543C37.2823 37.0967 37.114 37.0953 36.9602 37.1503C36.8064 37.2054 36.6771 37.3133 36.5952 37.4549L33.8953 42.1142C33.7453 42.4148 33.7753 42.7756 34.0453 42.986L36.8952 45.2104C36.7715 46.0878 36.7715 46.9783 36.8952 47.8557L34.0453 50.0802C33.8053 50.2906 33.7153 50.6513 33.8953 50.9519L36.5952 55.6112C36.7452 55.9118 37.1052 56.002 37.4352 55.9118L40.7652 54.5591C41.4552 55.1002 42.2052 55.5511 43.0452 55.8818L43.5552 59.4289C43.6152 59.7595 43.8851 60 44.2151 60H49.5851C49.9151 60 50.2151 59.7595 50.2451 59.4289L50.7551 55.8818C51.5651 55.521 52.3451 55.1002 53.0051 54.5591L56.365 55.9118C56.665 56.0321 57.025 55.9118 57.205 55.6112L59.905 50.9519C60.085 50.6814 59.995 50.3206 59.755 50.1102ZM46.8851 50.5912C45.8106 50.5908 44.7803 50.1627 44.0207 49.4011C43.2612 48.6395 42.8348 47.6067 42.8352 46.5301C42.8356 45.4534 43.2628 44.421 44.0229 43.6599C44.7829 42.8989 45.8136 42.4715 46.8881 42.4719C47.9626 42.4723 48.993 42.9004 49.7525 43.662C50.512 44.4237 50.9385 45.4564 50.9381 46.5331C50.9377 47.6097 50.5104 48.6422 49.7504 49.4032C48.9903 50.1643 47.9596 50.5916 46.8851 50.5912Z" fill="#0094FF"/>
</svg>
