<svg width="60" height="56" viewBox="0 0 60 56" fill="none" xmlns="http://www.w3.org/2000/svg">
<path d="M34.2898 51.4153H60V55.7004H34.2898V51.4153Z" fill="#0094FF"/>
<path d="M34.2898 40.7028H60V44.9878H34.2898V40.7028Z" fill="#0094FF"/>
<path d="M34.2898 29.9902H60V34.2752H34.2898V29.9902Z" fill="#0094FF"/>
<path d="M25.7197 49.2729H16.0784C12.0619 49.2774 8.18952 47.7768 5.2249 45.067C2.26028 42.3572 0.418612 38.6349 0.0630784 34.6342C-0.292455 30.6335 0.863958 26.6448 3.30426 23.4547C5.74457 20.2646 9.29163 18.1046 13.2459 17.4008C14.2475 12.1637 17.1658 7.4883 21.4306 4.28812C25.6954 1.08794 31.0002 -0.407023 36.3085 0.0953609C41.6167 0.597745 46.5469 3.06137 50.1356 7.00483C53.7243 10.9483 55.7137 16.0882 55.7149 21.4201H51.4299C51.4272 17.0383 49.7461 12.8239 46.7323 9.64315C43.7184 6.46239 39.6007 4.55687 35.2253 4.31822C30.85 4.07956 26.5494 5.5259 23.2074 8.35998C19.8655 11.1941 17.736 15.2006 17.2567 19.5561L17.0639 21.343L15.2706 21.463C12.219 21.6648 9.36553 23.046 7.31416 25.3144C5.2628 27.5827 4.17443 30.5601 4.27938 33.6167C4.38432 36.6732 5.67435 39.569 7.87647 41.6913C10.0786 43.8135 13.02 44.9958 16.0784 44.9878H25.7197V49.2729Z" fill="#0094FF"/>
</svg>
