<svg width="68" height="68" viewBox="0 0 68 68" fill="none" xmlns="http://www.w3.org/2000/svg">
<g clip-path="url(#clip0_14_434)">
<path d="M44.625 34H23.375C22.2482 34.0011 21.1678 34.4493 20.371 35.246C19.5743 36.0428 19.1261 37.1232 19.125 38.25V51C19.1261 52.1268 19.5743 53.2072 20.371 54.004C21.1678 54.8007 22.2482 55.2489 23.375 55.25H31.875V59.5H25.5V63.75H42.5V59.5H36.125V55.25H44.625C45.7518 55.2489 46.8322 54.8007 47.629 54.004C48.4257 53.2072 48.8739 52.1268 48.875 51V38.25C48.8739 37.1232 48.4257 36.0428 47.629 35.246C46.8322 34.4493 45.7518 34.0011 44.625 34ZM23.375 51V38.25H44.625L44.6293 51H23.375Z" fill="#0094FF"/>
<path d="M54.8717 21.5135C53.9432 16.6582 51.351 12.2786 47.5415 9.12851C43.7319 5.97844 38.9433 4.25507 34 4.25507C29.0567 4.25507 24.2681 5.97844 20.4585 9.12851C16.649 12.2786 14.0568 16.6582 13.1282 21.5135C9.29894 22.1951 5.85169 24.2551 3.43735 27.3045C1.02302 30.354 -0.1913 34.1818 0.023668 38.0654C0.238636 41.9489 1.86802 45.6194 4.60416 48.3837C7.34031 51.1481 10.9939 52.815 14.875 53.0698V48.8198C11.9523 48.5518 9.23759 47.1931 7.27142 45.014C5.30526 42.8349 4.23181 39.9953 4.26476 37.0605C4.29772 34.1257 5.43466 31.3109 7.44926 29.1766C9.46386 27.0422 12.2084 25.7447 15.1364 25.5425L16.915 25.4235L17.1062 23.6513C17.5641 19.4907 19.5412 15.6455 22.6586 12.8524C25.7759 10.0593 29.8144 8.51473 34 8.51473C38.1856 8.51473 42.2241 10.0593 45.3414 12.8524C48.4588 15.6455 50.4359 19.4907 50.8937 23.6513L51.085 25.4235L52.8636 25.5425C55.7942 25.7415 58.5421 27.0377 60.5595 29.1726C62.5769 31.3075 63.7156 34.1243 63.7486 37.0614C63.7815 39.9986 62.7064 42.8402 60.7374 45.0199C58.7684 47.1996 56.0503 48.5571 53.125 48.8219V53.0719C57.0078 52.8191 60.6635 51.153 63.4015 48.3884C66.1395 45.6237 67.77 41.9519 67.9851 38.0669C68.2001 34.1818 66.9847 30.3525 64.5686 27.3026C62.1525 24.2526 58.7029 22.1932 54.8717 21.5135Z" fill="#0094FF"/>
</g>
<defs>
<clipPath id="clip0_14_434">
<rect width="68" height="68" fill="white"/>
</clipPath>
</defs>
</svg>
