<svg width="68" height="68" viewBox="0 0 68 68" fill="none" xmlns="http://www.w3.org/2000/svg">
<path d="M34 0C24.9826 0 16.3346 3.58213 9.95837 9.95837C3.58213 16.3346 0 24.9826 0 34C0 43.0174 3.58213 51.6654 9.95837 58.0416C16.3346 64.4179 24.9826 68 34 68C43.0174 68 51.6654 64.4179 58.0416 58.0416C64.4179 51.6654 68 43.0174 68 34C68 24.9826 64.4179 16.3346 58.0416 9.95837C51.6654 3.58213 43.0174 0 34 0V0ZM47.0711 45.1444C47.0711 50.6978 44.0489 57.6111 31.7333 62.9C32.8667 47.1467 22.2133 48.96 19.6444 44.0111C19.8784 41.9637 20.6239 40.0082 21.8123 38.3247C23.0006 36.6412 24.5936 35.2838 26.4444 34.3778C20.582 33.3722 15.1146 30.7563 10.6533 26.8222C10.8422 28.5978 11.7073 30.2373 13.0711 31.3933C10.1166 30.2796 7.56371 28.3058 5.74222 25.7267C7.54337 19.782 11.1456 14.543 16.0517 10.7332C20.9577 6.92344 26.9255 4.73071 33.1311 4.45778C29.9578 9.67111 27.4644 20.06 33.1311 25.5C27.3133 26.4444 23.6489 18.8889 20.4378 21.8733C16.1689 25.8778 21.6844 31.3556 33.3578 33.5089C45.7867 35.7378 47.1844 39.4778 47.0711 45.1444ZM52.1333 30.0333C50.9244 25.84 54.4756 21.6089 58.5178 18.1711C61.0422 21.8099 62.6492 26.0053 63.2017 30.3994C63.7543 34.7935 63.236 39.2561 61.6911 43.4067C58.7822 36.2667 53.4933 34.6422 52.1333 29.92V30.0333Z" fill="#0094FF"/>
</svg>
