<svg width="68" height="68" viewBox="0 0 68 68" fill="none" xmlns="http://www.w3.org/2000/svg">
<path d="M34 46.1428C31.5983 46.1428 29.2507 45.4307 27.2538 44.0964C25.2569 42.7621 23.7005 40.8657 22.7814 38.6469C21.8624 36.428 21.6219 33.9865 22.0904 31.631C22.559 29.2755 23.7155 27.1119 25.4137 25.4137C27.1119 23.7155 29.2755 22.559 31.631 22.0904C33.9865 21.6219 36.428 21.8624 38.6469 22.7814C40.8657 23.7005 42.7621 25.2569 44.0964 27.2538C45.4307 29.2507 46.1428 31.5983 46.1428 34C46.139 37.2193 44.8584 40.3056 42.582 42.582C40.3056 44.8584 37.2193 46.139 34 46.1428ZM34 26.7143C32.559 26.7143 31.1504 27.1416 29.9523 27.9421C28.7541 28.7427 27.8203 29.8806 27.2689 31.2119C26.7174 32.5431 26.5731 34.0081 26.8543 35.4214C27.1354 36.8346 27.8293 38.1328 28.8482 39.1518C29.8671 40.1707 31.1653 40.8646 32.5786 41.1457C33.9919 41.4268 35.4568 41.2825 36.7881 40.7311C38.1194 40.1797 39.2573 39.2458 40.0578 38.0477C40.8584 36.8496 41.2857 35.441 41.2857 34C41.2838 32.0683 40.5155 30.2163 39.1496 28.8503C37.7837 27.4844 35.9317 26.7162 34 26.7143Z" fill="#0094FF"/>
<path d="M60.3743 25.4514C57.628 20.401 53.5479 16.2016 48.5787 13.311L49.6521 12.1963C51.6436 10.1369 54.3393 7.38286 57.5741 4.14557C57.9137 3.80593 58.1449 3.37325 58.2386 2.90222C58.3322 2.43119 58.2841 1.94297 58.1004 1.49927C57.9166 1.05557 57.6054 0.676315 57.2061 0.409453C56.8068 0.142591 56.3374 0.000102545 55.8571 0C54.9974 0 34.6411 0.119001 21.2039 10.4477C17.9881 12.8699 15.3021 15.9246 13.311 19.4237L12.1963 18.3503C10.1369 16.3564 7.38286 13.6631 4.14557 10.4259C3.80593 10.0863 3.37325 9.8551 2.90222 9.76144C2.43119 9.66778 1.94297 9.71587 1.49927 9.89964C1.05557 10.0834 0.676315 10.3946 0.409453 10.7939C0.142591 11.1932 0.000102545 11.6626 0 12.1429C0 13.0171 0.121429 33.694 10.7003 47.1191C13.0788 50.1946 16.0438 52.7675 19.4237 54.689L17.8281 56.3404C15.8974 58.3319 13.3887 60.8916 10.4259 63.8544C10.0863 64.1941 9.8551 64.6268 9.76144 65.0978C9.66778 65.5688 9.71587 66.057 9.89964 66.5007C10.0834 66.9444 10.3946 67.3237 10.7939 67.5905C11.1932 67.8574 11.6626 67.9999 12.1429 68C12.8374 68 29.291 67.915 42.4004 60.4569C47.514 57.7058 51.7669 53.594 54.689 48.5763C55.1844 49.0523 55.7349 49.5841 56.3404 50.1719C58.3319 52.1026 60.8916 54.6113 63.8544 57.5741C64.1941 57.9137 64.6268 58.1449 65.0978 58.2386C65.5688 58.3322 66.057 58.2841 66.5007 58.1004C66.9444 57.9166 67.3237 57.6054 67.5905 57.2061C67.8574 56.8068 67.9999 56.3374 68 55.8571C68 55.1577 67.9126 38.5851 60.3743 25.4514ZM53.0157 40.2851L51.6873 43.605C49.3654 49.0381 45.2357 53.5007 39.9986 56.236C33.2851 59.7504 25.9588 61.9419 18.4183 62.6911C19.4869 61.5983 27.7149 53.0181 27.7149 53.0181L24.3926 51.6897C20.4864 50.0848 17.0775 47.4697 14.5156 44.1126C8.347 36.2829 6.11757 25.262 5.31129 18.4183C6.63243 19.7151 14.9819 27.7124 14.9819 27.7124L16.3079 24.3926C17.9628 20.3779 20.6785 16.889 24.1643 14.2994C31.9746 8.29357 42.8157 6.10786 49.5817 5.31129C48.2849 6.63 40.2851 14.9819 40.2851 14.9819L43.6074 16.3103C48.994 18.6105 53.4267 22.6916 56.1631 27.8703C59.7225 34.6173 61.9394 41.9906 62.6911 49.5817C61.5983 48.5131 53.0157 40.2851 53.0157 40.2851Z" fill="#0094FF"/>
</svg>
